<?xml version="1.0" standalone="no"?><!DOCTYPE svg PUBLIC "-//W3C//DTD SVG 1.1//EN" "http://www.w3.org/Graphics/SVG/1.1/DTD/svg11.dtd"><svg t="1678503097365" class="icon" viewBox="0 0 1024 1024" version="1.1" xmlns="http://www.w3.org/2000/svg" p-id="4597" width="256" height="256" xmlns:xlink="http://www.w3.org/1999/xlink"><path d="M862 902c0 16.569-13.431 30-30 30H192c-16.569 0-30-13.431-30-30V122c0-16.569 13.431-30 30-30h476l194 194v616z" fill="#7DB4FF" p-id="4598"></path><path d="M862 286H698c-16.569 0-30-13.431-30-30V92" fill="#FFFFFF" fill-opacity=".296" p-id="4599"></path><path d="M289 92h70v70h-70zM359 162h70v70h-70zM289 232h70v70h-70zM359 302h70v70h-70zM289 372h70v70h-70zM289 468h140v110c0 16.569-13.431 30-30 30h-80c-16.569 0-30-13.431-30-30V468z" fill="#FFFFFF" p-id="4600"></path></svg>